<svg xmlns="http://www.w3.org/2000/svg" width="48" height="48" fill="none" viewBox="0 0 48 48"><defs><linearGradient id="foreground"><stop stop-color="#000"/></linearGradient><linearGradient id="background"><stop stop-color="#fff"/></linearGradient></defs><path fill="url(#background)" d="M2 6C0.9 6 0 6.9 0 8L0 12L0 13L0 40C0 41.1 0.9 42 2 42L46 42C47.1 42 48 41.1 48 40L48 13L48 12L48 8C48 6.9 47.1 6 46 6L32 6L16 6L2 6Z"/><rect width="48" height="1" x="0" y="12" fill="url(#foreground)"/><rect width="1" height="7" x="15.33" y="6" fill="url(#foreground)"/><rect width="1" height="7" x="31.66" y="6" fill="url(#foreground)"/><path fill="url(#foreground)" d="M15.2 24.3L6.4 33.1C5.9 33.6 5.9 34.3 6.4 34.7L8.2 36.5C8.7 37 9.4 37 9.8 36.5L18.6 27.7C19.1 27.2 19.1 26.5 18.6 26.1L16.8 24.3C16.4 23.9 15.6 23.9 15.2 24.3Z"/><path fill="url(#foreground)" d="M9.8 17.3L18.6 26.1C19.1 26.6 19.1 27.3 18.6 27.7L16.8 29.5C16.3 30 15.6 30 15.2 29.5L6.4 20.7C5.9 20.2 5.9 19.5 6.4 19.1L8.2 17.3C8.6 16.9 9.4 16.9 9.8 17.3Z"/><path fill="url(#foreground)" d="m 27.279297,33.324219 c 0,2.468099 0,4.936198 0,7.404297 0.513672,0 1.027343,0 1.541015,0 0,-0.848958 0,-1.697917 0,-2.546875 0.917549,0.01484 1.927453,0.03299 2.65875,-0.616892 1.172278,-0.927905 1.176118,-3.073122 -0.17547,-3.840777 -0.981472,-0.568217 -2.13908,-0.358412 -3.218649,-0.399753 -0.268549,0 -0.537097,0 -0.805646,0 z m 5.869141,0 c 0,2.468099 0,4.936198 0,7.404297 0.513021,0 1.026041,0 1.539062,0 0,-0.950521 0,-1.901042 0,-2.851563 0.431639,-0.03621 0.908827,0.05394 1.148438,0.458985 0.525553,0.771736 0.970414,1.596546 1.458984,2.392578 0.604167,0 1.208333,0 1.8125,0 -0.638695,-0.976785 -1.211177,-1.999445 -1.914561,-2.931671 -0.241051,-0.276681 -0.636923,-0.466649 -0.07177,-0.574189 1.274395,-0.677377 1.378019,-2.774051 0.102268,-3.504493 -0.922467,-0.560429 -2.029423,-0.352936 -3.053526,-0.393944 -0.340466,0 -0.680932,0 -1.021398,0 z m 6.25,0 c 0,2.468099 0,4.936198 0,7.404297 1.440755,0 2.88151,0 4.322265,0 0,-0.454427 0,-0.908855 0,-1.363282 -0.925781,0 -1.851563,0 -2.777344,0 0,-0.566406 0,-1.132812 0,-1.699218 0.804688,0 1.609375,0 2.414063,0 0,-0.454427 0,-0.908855 0,-1.363282 -0.804688,0 -1.609375,0 -2.414063,0 0,-0.536458 0,-1.072917 0,-1.609375 0.873047,0 1.746094,0 2.619141,0 0,-0.45638 0,-0.91276 0,-1.36914 -1.388021,0 -2.776041,0 -4.164062,0 z M 34.6875,34.648438 c 0.570781,0.0371 1.28319,-0.150767 1.691507,0.358943 0.370833,0.564952 0.02331,1.464787 -0.684396,1.526855 -0.334157,0.03512 -0.67147,0.0117 -1.007111,0.0185 0,-0.634765 0,-1.269531 0,-1.904296 z m -5.867188,0.01562 c 0.61736,0.02299 1.42501,-0.135196 1.79395,0.492096 0.333428,0.657753 -0.0252,1.619083 -0.829192,1.664678 -0.319151,0.05007 -0.643164,0.0243 -0.964758,0.03073 0,-0.729167 0,-1.458333 0,-2.1875 z"/></svg>