<svg xmlns="http://www.w3.org/2000/svg" width="48" height="48" fill="none" viewBox="0 0 48 48"><defs><linearGradient id="foreground"><stop stop-color="#000"/></linearGradient><linearGradient id="background"><stop stop-color="#fff"/></linearGradient></defs><path fill="url(#background)" d="M2 6C0.9 6 0 6.9 0 8L0 12L0 13L0 40C0 41.1 0.9 42 2 42L46 42C47.1 42 48 41.1 48 40L48 13L48 12L48 8C48 6.9 47.1 6 46 6L32 6L16 6L2 6Z"/><rect width="48" height="1" x="0" y="12" fill="url(#foreground)"/><rect width="1" height="7" x="15.33" y="6" fill="url(#foreground)"/><rect width="1" height="7" x="31.66" y="6" fill="url(#foreground)"/><path fill="url(#foreground)" d="M15.2 24.3L6.4 33.1C5.9 33.6 5.9 34.3 6.4 34.7L8.2 36.5C8.7 37 9.4 37 9.8 36.5L18.6 27.7C19.1 27.2 19.1 26.5 18.6 26.1L16.8 24.3C16.4 23.9 15.6 23.9 15.2 24.3Z"/><path fill="url(#foreground)" d="M9.8 17.3L18.6 26.1C19.1 26.6 19.1 27.3 18.6 27.7L16.8 29.5C16.3 30 15.6 30 15.2 29.5L6.4 20.7C5.9 20.2 5.9 19.5 6.4 19.1L8.2 17.3C8.6 16.9 9.4 16.9 9.8 17.3Z"/><path fill="url(#foreground)" d="M40 32H24C23.4 32 23 32.4 23 33V36C23 36.6 23.4 37 24 37H40C40.6 37 41 36.6 41 36V33C41 32.4 40.6 32 40 32Z"/></svg>