<svg xmlns="http://www.w3.org/2000/svg" xmlns:svg="http://www.w3.org/2000/svg" id="svg284" width="48" height="48" fill="none" version="1.1" viewBox="0 0 48 48"><metadata id="metadata288"/><g id="g4007" transform="matrix(0.9375,0,0,0.9375,0,1.5)"><path id="path150" d="M 0,13 H 16 V 6 H 2 C 0.9,6 0,6.9 0,8 Z" style="fill:#ccc"/><path id="path152" d="M 32,6 H 16 v 7 h 16 z" style="fill:#999"/><path id="path154" d="M 48,13 H 32 V 6 h 14 c 1.1,0 2,0.9 2,2 z" style="fill:#666"/><path id="path156" d="M 46,42 H 2 C 0.9,42 0,41.1 0,40 V 12 h 48 v 28 c 0,1.1 -0.9,2 -2,2 z" style="fill:url(#paint0_linear)"/><g id="g171" style="filter:url(#filter0_dd)"><path id="path158" d="m 15.2,24.3 -8.80001,8.8 c -0.5,0.5 -0.5,1.2 0,1.6 l 1.8,1.8 C 8.69999,37 9.4,37 9.8,36.5 l 8.8,-8.8 c 0.5,-0.5 0.5,-1.2 0,-1.6 l -1.8,-1.8 c -0.4,-0.4 -1.2,-0.4 -1.6,0 z" style="fill:url(#paint1_linear)"/><mask id="mask0" width="13" height="13" x="6" y="24" mask-type="alpha" maskUnits="userSpaceOnUse"><path id="path160" d="m 15.2,24.3 -8.80001,8.8 c -0.5,0.5 -0.5,1.2 0,1.6 l 1.8,1.8 C 8.69999,37 9.4,37 9.8,36.5 l 8.8,-8.8 c 0.5,-0.5 0.5,-1.2 0,-1.6 l -1.8,-1.8 c -0.4,-0.4 -1.2,-0.4 -1.6,0 z" style="fill:url(#paint2_linear)"/></mask><g id="g167" mask="url(#mask0)"><g id="g165" style="filter:url(#filter1_dd)"><path id="path163" d="m 9.8,17.3 8.8,8.8 c 0.5,0.5 0.5,1.2 0,1.6 l -1.8,1.8 c -0.5,0.5 -1.2,0.5 -1.6,0 L 6.39999,20.7 c -0.5,-0.5 -0.5,-1.2 0,-1.6 l 1.8,-1.8 C 8.59999,16.9 9.4,16.9 9.8,17.3 Z" style="fill:url(#paint3_linear)"/></g></g><path id="path169" d="m 9.8,17.3 8.8,8.8 c 0.5,0.5 0.5,1.2 0,1.6 l -1.8,1.8 c -0.5,0.5 -1.2,0.5 -1.6,0 L 6.39999,20.7 c -0.5,-0.5 -0.5,-1.2 0,-1.6 l 1.8,-1.8 C 8.59999,16.9 9.4,16.9 9.8,17.3 Z" style="fill:url(#paint4_linear)"/></g><g id="g175" style="filter:url(#filter2_dd)"><path id="path173" d="M 40,32 H 24 c -0.6,0 -1,0.4 -1,1 v 3 c 0,0.6 0.4,1 1,1 h 16 c 0.6,0 1,-0.4 1,-1 v -3 c 0,-0.6 -0.4,-1 -1,-1 z" style="fill:url(#paint5_linear)"/></g></g><defs id="defs282"><filter id="filter0_dd" width="18.95" height="25.875" x="3.025" y="15" color-interpolation-filters="sRGB" filterUnits="userSpaceOnUse"><feFlood id="feFlood177" flood-opacity="0" result="BackgroundImageFix"/><feColorMatrix id="feColorMatrix179" in="SourceAlpha" type="matrix" values="0 0 0 0 0 0 0 0 0 0 0 0 0 0 0 0 0 0 127 0"/><feOffset id="feOffset181" dy=".5"/><feGaussianBlur id="feGaussianBlur183" stdDeviation=".5"/><feColorMatrix id="feColorMatrix185" type="matrix" values="0 0 0 0 0 0 0 0 0 0 0 0 0 0 0 0 0 0 0.1 0"/><feBlend id="feBlend187" in2="BackgroundImageFix" mode="normal" result="effect1_dropShadow"/><feColorMatrix id="feColorMatrix189" in="SourceAlpha" type="matrix" values="0 0 0 0 0 0 0 0 0 0 0 0 0 0 0 0 0 0 127 0"/><feOffset id="feOffset191" dy="1"/><feGaussianBlur id="feGaussianBlur193" stdDeviation="1.5"/><feColorMatrix id="feColorMatrix195" type="matrix" values="0 0 0 0 0 0 0 0 0 0 0 0 0 0 0 0 0 0 0.2 0"/><feBlend id="feBlend197" in2="effect1_dropShadow" mode="normal" result="effect2_dropShadow"/><feBlend id="feBlend199" in="SourceGraphic" in2="effect2_dropShadow" mode="normal" result="shape"/></filter><filter id="filter1_dd" width="18.95" height="18.875" x="3.025" y="15" color-interpolation-filters="sRGB" filterUnits="userSpaceOnUse"><feFlood id="feFlood202" flood-opacity="0" result="BackgroundImageFix"/><feColorMatrix id="feColorMatrix204" in="SourceAlpha" type="matrix" values="0 0 0 0 0 0 0 0 0 0 0 0 0 0 0 0 0 0 127 0"/><feOffset id="feOffset206" dy=".5"/><feGaussianBlur id="feGaussianBlur208" stdDeviation=".5"/><feColorMatrix id="feColorMatrix210" type="matrix" values="0 0 0 0 0 0 0 0 0 0 0 0 0 0 0 0 0 0 0.1 0"/><feBlend id="feBlend212" in2="BackgroundImageFix" mode="normal" result="effect1_dropShadow"/><feColorMatrix id="feColorMatrix214" in="SourceAlpha" type="matrix" values="0 0 0 0 0 0 0 0 0 0 0 0 0 0 0 0 0 0 127 0"/><feOffset id="feOffset216" dy="1"/><feGaussianBlur id="feGaussianBlur218" stdDeviation="1.5"/><feColorMatrix id="feColorMatrix220" type="matrix" values="0 0 0 0 0 0 0 0 0 0 0 0 0 0 0 0 0 0 0.2 0"/><feBlend id="feBlend222" in2="effect1_dropShadow" mode="normal" result="effect2_dropShadow"/><feBlend id="feBlend224" in="SourceGraphic" in2="effect2_dropShadow" mode="normal" result="shape"/></filter><filter id="filter2_dd" width="24" height="11" x="20" y="30" color-interpolation-filters="sRGB" filterUnits="userSpaceOnUse"><feFlood id="feFlood227" flood-opacity="0" result="BackgroundImageFix"/><feColorMatrix id="feColorMatrix229" in="SourceAlpha" type="matrix" values="0 0 0 0 0 0 0 0 0 0 0 0 0 0 0 0 0 0 127 0"/><feOffset id="feOffset231" dy=".5"/><feGaussianBlur id="feGaussianBlur233" stdDeviation=".5"/><feColorMatrix id="feColorMatrix235" type="matrix" values="0 0 0 0 0 0 0 0 0 0 0 0 0 0 0 0 0 0 0.1 0"/><feBlend id="feBlend237" in2="BackgroundImageFix" mode="normal" result="effect1_dropShadow"/><feColorMatrix id="feColorMatrix239" in="SourceAlpha" type="matrix" values="0 0 0 0 0 0 0 0 0 0 0 0 0 0 0 0 0 0 127 0"/><feOffset id="feOffset241" dy="1"/><feGaussianBlur id="feGaussianBlur243" stdDeviation="1.5"/><feColorMatrix id="feColorMatrix245" type="matrix" values="0 0 0 0 0 0 0 0 0 0 0 0 0 0 0 0 0 0 0.2 0"/><feBlend id="feBlend247" in2="effect1_dropShadow" mode="normal" result="effect2_dropShadow"/><feBlend id="feBlend249" in="SourceGraphic" in2="effect2_dropShadow" mode="normal" result="shape"/></filter><linearGradient id="paint0_linear" x1="36.446" x2="11.822" y1="47.826" y2="5.175" gradientUnits="userSpaceOnUse"><stop id="stop252" stop-color="#333"/><stop id="stop254" offset="1" stop-color="#4D4D4D"/></linearGradient><linearGradient id="paint1_linear" x1="14.528" x2="10.484" y1="33.996" y2="26.992" gradientUnits="userSpaceOnUse"><stop id="stop257" stop-color="#999"/><stop id="stop259" offset="1" stop-color="#B3B3B3"/></linearGradient><linearGradient id="paint2_linear" x1="14.528" x2="10.484" y1="33.996" y2="26.992" gradientUnits="userSpaceOnUse"><stop id="stop262" stop-color="#999"/><stop id="stop264" offset="1" stop-color="#B3B3B3"/></linearGradient><linearGradient id="paint3_linear" x1="16.275" x2="8.737" y1="30.034" y2="16.978" gradientUnits="userSpaceOnUse"><stop id="stop267" stop-color="#CCC"/><stop id="stop269" offset="1" stop-color="#E6E6E6"/></linearGradient><linearGradient id="paint4_linear" x1="16.275" x2="8.737" y1="30.034" y2="16.978" gradientUnits="userSpaceOnUse"><stop id="stop272" stop-color="#CCC"/><stop id="stop274" offset="1" stop-color="#E6E6E6"/></linearGradient><linearGradient id="paint5_linear" x1="35.15" x2="28.85" y1="39.955" y2="29.045" gradientUnits="userSpaceOnUse"><stop id="stop277" stop-color="#CCC"/><stop id="stop279" offset="1" stop-color="#E6E6E6"/></linearGradient></defs><rect id="rect29" width="29" height="11.947" x="19" y="31.053" rx="1.824" style="fill:#fcc024;stroke-width:1;fill-opacity:1;stroke:none;stroke-miterlimit:4;stroke-dasharray:none"/><path id="pill_text" d="M29.3999 39.7363C28.9253 39.9824 28.335 40.1055 27.6289 40.1055C26.7148 40.1055 25.9824 39.8169 25.4316 39.2397C24.8809 38.6626 24.6055 37.9053 24.6055 36.9678C24.6055 35.96 24.9146 35.1455 25.5327 34.5244C26.1538 33.9033 26.9375 33.5928 27.8838 33.5928C28.4932 33.5928 28.9985 33.6792 29.3999 33.8521V34.8892C28.9751 34.6372 28.5063 34.5112 27.9937 34.5112C27.311 34.5112 26.7573 34.7295 26.3325 35.166C25.9106 35.6025 25.6997 36.1855 25.6997 36.915C25.6997 37.6094 25.8975 38.1631 26.293 38.5762C26.6885 38.9863 27.2085 39.1914 27.853 39.1914C28.4478 39.1914 28.9634 39.0508 29.3999 38.7695V39.7363ZM35.772 40H34.625L34.0581 38.396H31.5796L31.0347 40H29.8921L32.252 33.6982H33.4297L35.772 40ZM33.7812 37.5435L32.9067 35.0298C32.8804 34.9478 32.8525 34.8159 32.8232 34.6343H32.8057C32.7793 34.8013 32.75 34.9331 32.7178 35.0298L31.8521 37.5435H33.7812ZM41.9858 40H40.8433L37.833 35.3682C37.7568 35.251 37.6938 35.1294 37.644 35.0034H37.6177C37.6411 35.1382 37.6528 35.4268 37.6528 35.8691V40H36.6421V33.6982H37.8594L40.7686 38.2202C40.8916 38.4077 40.9707 38.5366 41.0059 38.6069H41.0234C40.9941 38.4399 40.9795 38.1572 40.9795 37.7588V33.6982H41.9858V40Z" style="fill:#000;stroke-width:1;stroke:none;stroke-miterlimit:4;stroke-dasharray:none"/></svg>