<svg xmlns="http://www.w3.org/2000/svg" width="48" height="48" fill="none" viewBox="0 0 48 48"><path fill="#CCC" d="M0 13H16V6H2C0.9 6 0 6.9 0 8V13Z"/><path fill="#999" d="M32 6H16V13H32V6Z"/><path fill="#666" d="M48 13H32V6H46C47.1 6 48 6.9 48 8V13Z"/><path fill="url(#paint0_linear)" d="M46 42H2C0.9 42 0 41.1 0 40V12H48V40C48 41.1 47.1 42 46 42Z"/><g filter="url(#filter0_dd)"><path fill="url(#paint1_linear)" d="M15.2 24.3L6.39999 33.1C5.89999 33.6 5.89999 34.3 6.39999 34.7L8.19999 36.5C8.69999 37 9.4 37 9.8 36.5L18.6 27.7C19.1 27.2 19.1 26.5 18.6 26.1L16.8 24.3C16.4 23.9 15.6 23.9 15.2 24.3Z"/><mask id="mask0" width="13" height="13" x="6" y="24" mask-type="alpha" maskUnits="userSpaceOnUse"><path fill="url(#paint2_linear)" d="M15.2 24.3L6.39999 33.1C5.89999 33.6 5.89999 34.3 6.39999 34.7L8.19999 36.5C8.69999 37 9.4 37 9.8 36.5L18.6 27.7C19.1 27.2 19.1 26.5 18.6 26.1L16.8 24.3C16.4 23.9 15.6 23.9 15.2 24.3Z"/></mask><g mask="url(#mask0)"><g filter="url(#filter1_dd)"><path fill="url(#paint3_linear)" d="M9.8 17.3L18.6 26.1C19.1 26.6 19.1 27.3 18.6 27.7L16.8 29.5C16.3 30 15.6 30 15.2 29.5L6.39999 20.7C5.89999 20.2 5.89999 19.5 6.39999 19.1L8.19999 17.3C8.59999 16.9 9.4 16.9 9.8 17.3Z"/></g></g><path fill="url(#paint4_linear)" d="M9.8 17.3L18.6 26.1C19.1 26.6 19.1 27.3 18.6 27.7L16.8 29.5C16.3 30 15.6 30 15.2 29.5L6.39999 20.7C5.89999 20.2 5.89999 19.5 6.39999 19.1L8.19999 17.3C8.59999 16.9 9.4 16.9 9.8 17.3Z"/></g><g filter="url(#filter2_dd)"><path fill="url(#paint5_linear)" d="M40 32H24C23.4 32 23 32.4 23 33V36C23 36.6 23.4 37 24 37H40C40.6 37 41 36.6 41 36V33C41 32.4 40.6 32 40 32Z"/></g><defs><filter id="filter0_dd" width="18.95" height="25.875" x="3.025" y="15" color-interpolation-filters="sRGB" filterUnits="userSpaceOnUse"><feFlood flood-opacity="0" result="BackgroundImageFix"/><feColorMatrix in="SourceAlpha" type="matrix" values="0 0 0 0 0 0 0 0 0 0 0 0 0 0 0 0 0 0 127 0"/><feOffset dy=".5"/><feGaussianBlur stdDeviation=".5"/><feColorMatrix type="matrix" values="0 0 0 0 0 0 0 0 0 0 0 0 0 0 0 0 0 0 0.1 0"/><feBlend in2="BackgroundImageFix" mode="normal" result="effect1_dropShadow"/><feColorMatrix in="SourceAlpha" type="matrix" values="0 0 0 0 0 0 0 0 0 0 0 0 0 0 0 0 0 0 127 0"/><feOffset dy="1"/><feGaussianBlur stdDeviation="1.5"/><feColorMatrix type="matrix" values="0 0 0 0 0 0 0 0 0 0 0 0 0 0 0 0 0 0 0.2 0"/><feBlend in2="effect1_dropShadow" mode="normal" result="effect2_dropShadow"/><feBlend in="SourceGraphic" in2="effect2_dropShadow" mode="normal" result="shape"/></filter><filter id="filter1_dd" width="18.95" height="18.875" x="3.025" y="15" color-interpolation-filters="sRGB" filterUnits="userSpaceOnUse"><feFlood flood-opacity="0" result="BackgroundImageFix"/><feColorMatrix in="SourceAlpha" type="matrix" values="0 0 0 0 0 0 0 0 0 0 0 0 0 0 0 0 0 0 127 0"/><feOffset dy=".5"/><feGaussianBlur stdDeviation=".5"/><feColorMatrix type="matrix" values="0 0 0 0 0 0 0 0 0 0 0 0 0 0 0 0 0 0 0.1 0"/><feBlend in2="BackgroundImageFix" mode="normal" result="effect1_dropShadow"/><feColorMatrix in="SourceAlpha" type="matrix" values="0 0 0 0 0 0 0 0 0 0 0 0 0 0 0 0 0 0 127 0"/><feOffset dy="1"/><feGaussianBlur stdDeviation="1.5"/><feColorMatrix type="matrix" values="0 0 0 0 0 0 0 0 0 0 0 0 0 0 0 0 0 0 0.2 0"/><feBlend in2="effect1_dropShadow" mode="normal" result="effect2_dropShadow"/><feBlend in="SourceGraphic" in2="effect2_dropShadow" mode="normal" result="shape"/></filter><filter id="filter2_dd" width="24" height="11" x="20" y="30" color-interpolation-filters="sRGB" filterUnits="userSpaceOnUse"><feFlood flood-opacity="0" result="BackgroundImageFix"/><feColorMatrix in="SourceAlpha" type="matrix" values="0 0 0 0 0 0 0 0 0 0 0 0 0 0 0 0 0 0 127 0"/><feOffset dy=".5"/><feGaussianBlur stdDeviation=".5"/><feColorMatrix type="matrix" values="0 0 0 0 0 0 0 0 0 0 0 0 0 0 0 0 0 0 0.1 0"/><feBlend in2="BackgroundImageFix" mode="normal" result="effect1_dropShadow"/><feColorMatrix in="SourceAlpha" type="matrix" values="0 0 0 0 0 0 0 0 0 0 0 0 0 0 0 0 0 0 127 0"/><feOffset dy="1"/><feGaussianBlur stdDeviation="1.5"/><feColorMatrix type="matrix" values="0 0 0 0 0 0 0 0 0 0 0 0 0 0 0 0 0 0 0.2 0"/><feBlend in2="effect1_dropShadow" mode="normal" result="effect2_dropShadow"/><feBlend in="SourceGraphic" in2="effect2_dropShadow" mode="normal" result="shape"/></filter><linearGradient id="paint0_linear" x1="36.446" x2="11.822" y1="47.826" y2="5.175" gradientUnits="userSpaceOnUse"><stop stop-color="#333"/><stop offset="1" stop-color="#4D4D4D"/></linearGradient><linearGradient id="paint1_linear" x1="14.528" x2="10.484" y1="33.996" y2="26.992" gradientUnits="userSpaceOnUse"><stop stop-color="#999"/><stop offset="1" stop-color="#B3B3B3"/></linearGradient><linearGradient id="paint2_linear" x1="14.528" x2="10.484" y1="33.996" y2="26.992" gradientUnits="userSpaceOnUse"><stop stop-color="#999"/><stop offset="1" stop-color="#B3B3B3"/></linearGradient><linearGradient id="paint3_linear" x1="16.275" x2="8.737" y1="30.034" y2="16.978" gradientUnits="userSpaceOnUse"><stop stop-color="#CCC"/><stop offset="1" stop-color="#E6E6E6"/></linearGradient><linearGradient id="paint4_linear" x1="16.275" x2="8.737" y1="30.034" y2="16.978" gradientUnits="userSpaceOnUse"><stop stop-color="#CCC"/><stop offset="1" stop-color="#E6E6E6"/></linearGradient><linearGradient id="paint5_linear" x1="35.15" x2="28.85" y1="39.955" y2="29.045" gradientUnits="userSpaceOnUse"><stop stop-color="#CCC"/><stop offset="1" stop-color="#E6E6E6"/></linearGradient></defs></svg>