<?xml version="1.0" encoding="UTF-8" standalone="no"?>
<svg
   xmlns:dc="http://purl.org/dc/elements/1.1/"
   xmlns:cc="http://creativecommons.org/ns#"
   xmlns:rdf="http://www.w3.org/1999/02/22-rdf-syntax-ns#"
   xmlns:svg="http://www.w3.org/2000/svg"
   xmlns="http://www.w3.org/2000/svg"
   xmlns:sodipodi="http://sodipodi.sourceforge.net/DTD/sodipodi-0.dtd"
   xmlns:inkscape="http://www.inkscape.org/namespaces/inkscape"
   width="48"
   height="48"
   viewBox="0 0 48 48"
   fill="none"
   version="1.1"
   id="svg284"
   sodipodi:docname="Terminal_Pre_Pill.svg"
   inkscape:version="0.92.4 (5da689c313, 2019-01-14)">
  <metadata
     id="metadata288">
    <rdf:RDF>
      <cc:Work
         rdf:about="">
        <dc:format>image/svg+xml</dc:format>
        <dc:type
           rdf:resource="http://purl.org/dc/dcmitype/StillImage" />
        <dc:title />
      </cc:Work>
    </rdf:RDF>
  </metadata>
  <sodipodi:namedview
     pagecolor="#ffffff"
     bordercolor="#666666"
     borderopacity="1"
     objecttolerance="10"
     gridtolerance="10"
     guidetolerance="10"
     inkscape:pageopacity="0"
     inkscape:pageshadow="2"
     inkscape:window-width="922"
     inkscape:window-height="816"
     id="namedview286"
     showgrid="false"
     inkscape:zoom="8.8541667"
     inkscape:cx="-17.429862"
     inkscape:cy="31.710582"
     inkscape:window-x="3142"
     inkscape:window-y="60"
     inkscape:window-maximized="0"
     inkscape:current-layer="svg284" />
  <g
     id="g4007"
     transform="matrix(0.9375,0,0,0.9375,0,1.5)">
    <path
       id="path150"
       d="M 0,13 H 16 V 6 H 2 C 0.9,6 0,6.9 0,8 Z"
       inkscape:connector-curvature="0"
       style="fill:#cccccc" />
    <path
       id="path152"
       d="M 32,6 H 16 v 7 h 16 z"
       inkscape:connector-curvature="0"
       style="fill:#999999" />
    <path
       id="path154"
       d="M 48,13 H 32 V 6 h 14 c 1.1,0 2,0.9 2,2 z"
       inkscape:connector-curvature="0"
       style="fill:#666666" />
    <path
       id="path156"
       d="M 46,42 H 2 C 0.9,42 0,41.1 0,40 V 12 h 48 v 28 c 0,1.1 -0.9,2 -2,2 z"
       style="fill:url(#paint0_linear)"
       inkscape:connector-curvature="0" />
    <g
       id="g171"
       style="filter:url(#filter0_dd)">
      <path
         id="path158"
         d="m 15.2,24.3 -8.80001,8.8 c -0.5,0.5 -0.5,1.2 0,1.6 l 1.8,1.8 C 8.69999,37 9.4,37 9.8,36.5 l 8.8,-8.8 c 0.5,-0.5 0.5,-1.2 0,-1.6 l -1.8,-1.8 c -0.4,-0.4 -1.2,-0.4 -1.6,0 z"
         style="fill:url(#paint1_linear)"
         inkscape:connector-curvature="0" />
      <mask
         height="13"
         width="13"
         y="24"
         x="6"
         maskUnits="userSpaceOnUse"
         mask-type="alpha"
         id="mask0">
        <path
           id="path160"
           d="m 15.2,24.3 -8.80001,8.8 c -0.5,0.5 -0.5,1.2 0,1.6 l 1.8,1.8 C 8.69999,37 9.4,37 9.8,36.5 l 8.8,-8.8 c 0.5,-0.5 0.5,-1.2 0,-1.6 l -1.8,-1.8 c -0.4,-0.4 -1.2,-0.4 -1.6,0 z"
           inkscape:connector-curvature="0"
           style="fill:url(#paint2_linear)" />
      </mask>
      <g
         id="g167"
         mask="url(#mask0)">
        <g
           id="g165"
           style="filter:url(#filter1_dd)">
          <path
             id="path163"
             d="m 9.8,17.3 8.8,8.8 c 0.5,0.5 0.5,1.2 0,1.6 l -1.8,1.8 c -0.5,0.5 -1.2,0.5 -1.6,0 L 6.39999,20.7 c -0.5,-0.5 -0.5,-1.2 0,-1.6 l 1.8,-1.8 C 8.59999,16.9 9.4,16.9 9.8,17.3 Z"
             style="fill:url(#paint3_linear)"
             inkscape:connector-curvature="0" />
        </g>
      </g>
      <path
         id="path169"
         d="m 9.8,17.3 8.8,8.8 c 0.5,0.5 0.5,1.2 0,1.6 l -1.8,1.8 c -0.5,0.5 -1.2,0.5 -1.6,0 L 6.39999,20.7 c -0.5,-0.5 -0.5,-1.2 0,-1.6 l 1.8,-1.8 C 8.59999,16.9 9.4,16.9 9.8,17.3 Z"
         style="fill:url(#paint4_linear)"
         inkscape:connector-curvature="0" />
    </g>
    <g
       id="g175"
       style="filter:url(#filter2_dd)">
      <path
         id="path173"
         d="M 40,32 H 24 c -0.6,0 -1,0.4 -1,1 v 3 c 0,0.6 0.4,1 1,1 h 16 c 0.6,0 1,-0.4 1,-1 v -3 c 0,-0.6 -0.4,-1 -1,-1 z"
         style="fill:url(#paint5_linear)"
         inkscape:connector-curvature="0" />
    </g>
  </g>
  <defs
     id="defs282">
    <filter
       id="filter0_dd"
       x="3.02499"
       y="15"
       width="18.95"
       height="25.875"
       filterUnits="userSpaceOnUse"
       color-interpolation-filters="sRGB">
      <feFlood
         flood-opacity="0"
         result="BackgroundImageFix"
         id="feFlood177" />
      <feColorMatrix
         in="SourceAlpha"
         type="matrix"
         values="0 0 0 0 0 0 0 0 0 0 0 0 0 0 0 0 0 0 127 0"
         id="feColorMatrix179" />
      <feOffset
         dy="0.5"
         id="feOffset181" />
      <feGaussianBlur
         stdDeviation="0.5"
         id="feGaussianBlur183" />
      <feColorMatrix
         type="matrix"
         values="0 0 0 0 0 0 0 0 0 0 0 0 0 0 0 0 0 0 0.1 0"
         id="feColorMatrix185" />
      <feBlend
         mode="normal"
         in2="BackgroundImageFix"
         result="effect1_dropShadow"
         id="feBlend187" />
      <feColorMatrix
         in="SourceAlpha"
         type="matrix"
         values="0 0 0 0 0 0 0 0 0 0 0 0 0 0 0 0 0 0 127 0"
         id="feColorMatrix189" />
      <feOffset
         dy="1"
         id="feOffset191" />
      <feGaussianBlur
         stdDeviation="1.5"
         id="feGaussianBlur193" />
      <feColorMatrix
         type="matrix"
         values="0 0 0 0 0 0 0 0 0 0 0 0 0 0 0 0 0 0 0.2 0"
         id="feColorMatrix195" />
      <feBlend
         mode="normal"
         in2="effect1_dropShadow"
         result="effect2_dropShadow"
         id="feBlend197" />
      <feBlend
         mode="normal"
         in="SourceGraphic"
         in2="effect2_dropShadow"
         result="shape"
         id="feBlend199" />
    </filter>
    <filter
       id="filter1_dd"
       x="3.02499"
       y="15"
       width="18.95"
       height="18.875"
       filterUnits="userSpaceOnUse"
       color-interpolation-filters="sRGB">
      <feFlood
         flood-opacity="0"
         result="BackgroundImageFix"
         id="feFlood202" />
      <feColorMatrix
         in="SourceAlpha"
         type="matrix"
         values="0 0 0 0 0 0 0 0 0 0 0 0 0 0 0 0 0 0 127 0"
         id="feColorMatrix204" />
      <feOffset
         dy="0.5"
         id="feOffset206" />
      <feGaussianBlur
         stdDeviation="0.5"
         id="feGaussianBlur208" />
      <feColorMatrix
         type="matrix"
         values="0 0 0 0 0 0 0 0 0 0 0 0 0 0 0 0 0 0 0.1 0"
         id="feColorMatrix210" />
      <feBlend
         mode="normal"
         in2="BackgroundImageFix"
         result="effect1_dropShadow"
         id="feBlend212" />
      <feColorMatrix
         in="SourceAlpha"
         type="matrix"
         values="0 0 0 0 0 0 0 0 0 0 0 0 0 0 0 0 0 0 127 0"
         id="feColorMatrix214" />
      <feOffset
         dy="1"
         id="feOffset216" />
      <feGaussianBlur
         stdDeviation="1.5"
         id="feGaussianBlur218" />
      <feColorMatrix
         type="matrix"
         values="0 0 0 0 0 0 0 0 0 0 0 0 0 0 0 0 0 0 0.2 0"
         id="feColorMatrix220" />
      <feBlend
         mode="normal"
         in2="effect1_dropShadow"
         result="effect2_dropShadow"
         id="feBlend222" />
      <feBlend
         mode="normal"
         in="SourceGraphic"
         in2="effect2_dropShadow"
         result="shape"
         id="feBlend224" />
    </filter>
    <filter
       id="filter2_dd"
       x="20"
       y="30"
       width="24"
       height="11"
       filterUnits="userSpaceOnUse"
       color-interpolation-filters="sRGB">
      <feFlood
         flood-opacity="0"
         result="BackgroundImageFix"
         id="feFlood227" />
      <feColorMatrix
         in="SourceAlpha"
         type="matrix"
         values="0 0 0 0 0 0 0 0 0 0 0 0 0 0 0 0 0 0 127 0"
         id="feColorMatrix229" />
      <feOffset
         dy="0.5"
         id="feOffset231" />
      <feGaussianBlur
         stdDeviation="0.5"
         id="feGaussianBlur233" />
      <feColorMatrix
         type="matrix"
         values="0 0 0 0 0 0 0 0 0 0 0 0 0 0 0 0 0 0 0.1 0"
         id="feColorMatrix235" />
      <feBlend
         mode="normal"
         in2="BackgroundImageFix"
         result="effect1_dropShadow"
         id="feBlend237" />
      <feColorMatrix
         in="SourceAlpha"
         type="matrix"
         values="0 0 0 0 0 0 0 0 0 0 0 0 0 0 0 0 0 0 127 0"
         id="feColorMatrix239" />
      <feOffset
         dy="1"
         id="feOffset241" />
      <feGaussianBlur
         stdDeviation="1.5"
         id="feGaussianBlur243" />
      <feColorMatrix
         type="matrix"
         values="0 0 0 0 0 0 0 0 0 0 0 0 0 0 0 0 0 0 0.2 0"
         id="feColorMatrix245" />
      <feBlend
         mode="normal"
         in2="effect1_dropShadow"
         result="effect2_dropShadow"
         id="feBlend247" />
      <feBlend
         mode="normal"
         in="SourceGraphic"
         in2="effect2_dropShadow"
         result="shape"
         id="feBlend249" />
    </filter>
    <linearGradient
       id="paint0_linear"
       x1="36.4462"
       y1="47.8257"
       x2="11.8217"
       y2="5.1748"
       gradientUnits="userSpaceOnUse">
      <stop
         stop-color="#333333"
         id="stop252" />
      <stop
         offset="1"
         stop-color="#4D4D4D"
         id="stop254" />
    </linearGradient>
    <linearGradient
       id="paint1_linear"
       x1="14.5276"
       y1="33.9959"
       x2="10.4841"
       y2="26.9924"
       gradientUnits="userSpaceOnUse">
      <stop
         stop-color="#999999"
         id="stop257" />
      <stop
         offset="1"
         stop-color="#B3B3B3"
         id="stop259" />
    </linearGradient>
    <linearGradient
       id="paint2_linear"
       x1="14.5276"
       y1="33.9959"
       x2="10.4841"
       y2="26.9924"
       gradientUnits="userSpaceOnUse">
      <stop
         stop-color="#999999"
         id="stop262" />
      <stop
         offset="1"
         stop-color="#B3B3B3"
         id="stop264" />
    </linearGradient>
    <linearGradient
       id="paint3_linear"
       x1="16.2747"
       y1="30.0336"
       x2="8.73699"
       y2="16.9781"
       gradientUnits="userSpaceOnUse">
      <stop
         stop-color="#CCCCCC"
         id="stop267" />
      <stop
         offset="1"
         stop-color="#E6E6E6"
         id="stop269" />
    </linearGradient>
    <linearGradient
       id="paint4_linear"
       x1="16.2747"
       y1="30.0336"
       x2="8.73699"
       y2="16.9781"
       gradientUnits="userSpaceOnUse">
      <stop
         stop-color="#CCCCCC"
         id="stop272" />
      <stop
         offset="1"
         stop-color="#E6E6E6"
         id="stop274" />
    </linearGradient>
    <linearGradient
       id="paint5_linear"
       x1="35.1496"
       y1="39.9553"
       x2="28.8504"
       y2="29.0447"
       gradientUnits="userSpaceOnUse">
      <stop
         stop-color="#CCCCCC"
         id="stop277" />
      <stop
         offset="1"
         stop-color="#E6E6E6"
         id="stop279" />
    </linearGradient>
  </defs>
  <rect
     x="19"
     y="31.053001"
     width="29"
     height="11.947"
     rx="1.8238994"
     id="rect29"
     style="fill:#50e6ff;stroke-width:1;fill-opacity:1;stroke:none;stroke-miterlimit:4;stroke-dasharray:none" />
  <path
     d="m 26.63028,37.991385 v 2.54708 h -1.16082 v -7.02393 h 2.13068 c 0.80653,0 1.43185,0.18768 1.87597,0.56322 0.44412,0.37554 0.66618,0.90456 0.66618,1.58706 0,0.68242 -0.23182,1.2408 -0.69554,1.67516 -0.46373,0.43427 -1.0907,0.65141 -1.8809,0.65141 z m 0,-3.51684 v 2.56659 h 0.75437 c 0.49956,0 0.88003,-0.11591 1.14121,-0.34773 0.26127,-0.23182 0.39186,-0.55838 0.39186,-0.97961 0,-0.82623 -0.48005,-1.23925 -1.44006,-1.23925 z m 10.13431,6.06392 h -1.36172 l -1.12161,-1.8809 c -0.10122,-0.17309 -0.2009,-0.32 -0.29884,-0.44084 -0.0947,-0.12411 -0.1926,-0.22534 -0.29383,-0.30368 -0.098,-0.0783 -0.20574,-0.13551 -0.32329,-0.17144 -0.11755,-0.0359 -0.24987,-0.0539 -0.39679,-0.0539 h -0.4702 v 2.85076 H 31.3374 v -7.02393 h 2.31197 c 0.32977,0 0.63345,0.0391 0.91104,0.11755 0.2776,0.0783 0.51918,0.19753 0.72491,0.35748 0.20574,0.15677 0.36578,0.35439 0.48005,0.59277 0.11755,0.2351 0.17637,0.51097 0.17637,0.82778 0,0.24814 -0.0376,0.47676 -0.11271,0.68569 -0.0719,0.20574 -0.17628,0.39022 -0.31344,0.55355 -0.13388,0.15996 -0.29721,0.29712 -0.48981,0.41139 -0.18941,0.11426 -0.40335,0.20245 -0.64165,0.26455 v 0.0195 c 0.12731,0.0719 0.2383,0.15193 0.33305,0.24002 0.0947,0.0849 0.18448,0.17309 0.26939,0.26456 0.0849,0.0914 0.16816,0.19589 0.24978,0.31344 0.0849,0.11426 0.17801,0.24823 0.27924,0.40162 z m -4.26628,-6.07861 v 2.28252 h 0.96986 c 0.17956,0 0.34444,-0.0277 0.49464,-0.0833 0.15348,-0.0555 0.28581,-0.13551 0.39679,-0.24002 0.11099,-0.10451 0.19753,-0.23182 0.25963,-0.38202 0.062,-0.1502 0.093,-0.31845 0.093,-0.50458 0,-0.33633 -0.10615,-0.59915 -0.31836,-0.78856 -0.2123,-0.18941 -0.51762,-0.28408 -0.91596,-0.28408 z m 9.03223,6.07861 h -3.94309 v -7.02393 h 3.78632 v 0.98937 h -2.62049 v 1.98869 h 2.41476 v 0.98454 h -2.41476 v 2.07678 h 2.77726 z"
     id="pill_text"
     inkscape:connector-curvature="0"
     style="fill:#000000;stroke-width:1;stroke:none;stroke-miterlimit:4;stroke-dasharray:none" />
</svg>
